# xmcd
#
# Track frame offsets:
# 150
# 13288
# 30870
# 42555
# 54625
# 65130
# 77515
# 92553
# 105905
# 120110
#
# Disc length: 1740 seconds
#
#
# Revision: 3
# Processed by: cddbd v1.5.2PL0 Copyright (c) Steve Scherf et al.
# Submitted via: FreeRIP 2.943 
#
DISCID=7106ca0a
DTITLE=Rogers, Kenny  And The First Edition - Greatest Hits - Greatest Hits
DYEAR=1900
DGENRE=Country
TTITLE0=Ruby, Don't Take Your Love To Town
TTITLE1=Something's Burning
TTITLE2=Me And Bobby McGee
TTITLE3=Elvira
TTITLE4=Goodtime Liberator
TTITLE5=Reuben James
TTITLE6=Condition
TTITLE7=Shine On Ruby Mountain
TTITLE8=Sunshine
TTITLE9=Ticket To Nowhere
EXTD=
EXTT0=
EXTT1=
EXTT2=
EXTT3=
EXTT4=
EXTT5=
EXTT6=
EXTT7=
EXTT8=
EXTT9=
PLAYORDER=
